# xmcd
#
# Track frame offsets:
#	150
#	18880
#	38809
#	55949
#	73262
#	90614
#	110025
#	127807
#	146023
#	166201
#	186733
#	206941
#	229561
#	242951
#	261790
#	278181
#	298276
#	315698
#	334000
#
# Disc length: 4679 seconds
#
# Revision: 2
# Processed by: cddbd v1.5.2PL0 Copyright (c) Steve Scherf et al.
# Submitted via: audiograbber 1.83.01
#
DISCID=2a124513
DTITLE=Chris de Burgh - Missing You - Best [Zounds]
DYEAR=2007
DGENRE=Folk/Pop
TTITLE0=Missing You
TTITLE1=High On Emotion
TTITLE2=Ship To Shore
TTITLE3=Don't Pay The Ferryman
TTITLE4=The Getaway
TTITLE5=The Lady In Red
TTITLE6=Where Peaceful Waters Flow
TTITLE7=The Ecstasy Of Flight (I Love The Night)
TTITLE8=Fire On The Water
TTITLE9=One Word (Straight To The Heart)
TTITLE10=The Simple Truth (A Child Is Born)
TTITLE11=Sailing Away
TTITLE12=Don't Look Back
TTITLE13=This Waiting Heart
TTITLE14=Separate Tables
TTITLE15=By My Side
TTITLE16=Talk To Me
TTITLE17=This Silent World
TTITLE18=This Is Love
EXTD=
EXTT0=
EXTT1=
EXTT2=
EXTT3=
EXTT4=
EXTT5=
EXTT6=
EXTT7=
EXTT8=
EXTT9=
EXTT10=
EXTT11=
EXTT12=
EXTT13=
EXTT14=
EXTT15=
EXTT16=
EXTT17=
EXTT18=
PLAYORDER=
